<svg width="1920" height="2337" viewBox="0 0 1920 2337" fill="none" xmlns="http://www.w3.org/2000/svg">
<g clip-path="url(#clip0)">
<path d="M525.386 541.884C525.386 535.531 520.255 530.156 513.659 530.156C467.726 530.156 422.527 523.071 379.282 508.901C201.66 450.752 82.1861 285.834 82.1861 98.6838L82.1861 -292.964C82.1861 -355.266 57.9983 -413.904 13.776 -457.882C-30.202 -501.86 -88.8392 -526.292 -151.141 -526.292C-157.494 -526.292 -162.869 -521.161 -162.869 -514.564C-162.869 -508.212 -157.738 -502.837 -151.141 -502.837C-94.9473 -502.837 -42.4181 -481.092 -2.59363 -441.268C36.9865 -401.688 58.9755 -348.914 58.9755 -292.72L58.9755 98.9281C58.9755 196.657 89.5158 289.988 147.42 368.415C204.103 445.377 281.797 501.571 372.196 531.134C417.884 546.037 465.527 553.611 513.903 553.611C520.011 553.611 525.386 548.481 525.386 541.884Z" fill="#253D95" fill-opacity="0.05"/>
<path d="M526.852 349.114L526.852 313.443L526.852 313.199L526.852 272.641C526.852 192.748 461.863 127.514 381.725 127.514C258.587 127.514 158.17 27.3418 158.17 -96.0408L158.17 -282.458C158.17 -347.448 139.113 -410.239 102.709 -463.99C99.0446 -469.365 91.9592 -470.831 86.5841 -467.166C81.209 -463.501 79.7431 -456.416 83.408 -451.041C117.124 -401.199 134.96 -343.05 134.96 -282.703L134.96 -96.0408C134.96 40.0465 245.638 150.724 381.725 150.724C448.914 150.724 503.397 205.453 503.397 272.397L503.397 312.71L503.397 312.954L503.397 348.625C503.397 383.075 516.835 415.57 541.267 440.002C565.7 464.434 598.194 477.872 632.644 477.872L950.262 477.872C956.615 477.872 961.99 472.741 961.99 466.144C961.99 459.792 956.859 454.417 950.262 454.417L632.644 454.417C604.302 454.417 577.671 443.422 557.637 423.388C537.847 404.086 526.852 377.455 526.852 349.114Z" fill="#253D95" fill-opacity="0.05"/>
<path d="M389.787 92.0869C383.435 92.0869 378.06 97.2177 378.06 103.814C378.06 110.411 383.191 115.542 389.787 115.542C475.056 115.542 544.688 184.929 544.688 270.442L544.688 342.273C544.688 348.625 549.818 354 556.415 354C562.767 354 568.143 348.869 568.143 342.273L568.143 270.442C567.898 171.98 488.005 92.0869 389.787 92.0869Z" fill="#253D95" fill-opacity="0.05"/>
<path d="M519.767 466.633C519.767 460.28 514.636 454.905 508.04 454.905C316.98 454.905 161.347 299.516 161.347 108.212C161.347 101.86 156.216 96.4847 149.619 96.4847C143.267 96.4847 137.892 101.615 137.892 108.212C137.892 312.221 303.786 478.116 507.795 478.116C514.392 478.36 519.767 473.229 519.767 466.633Z" fill="#253D95" fill-opacity="0.05"/>
<path d="M174.296 296.585C143.022 241.123 126.408 178.088 126.408 114.076L126.408 -80.16C126.408 -86.5123 121.278 -91.8874 114.681 -91.8874C108.328 -91.8874 102.953 -86.7567 102.953 -80.16L102.953 114.076C102.953 182.242 120.545 249.186 154.017 308.068C156.216 311.733 160.125 313.931 164.034 313.931C165.989 313.931 167.943 313.443 169.653 312.466C175.517 309.289 177.472 302.204 174.296 296.585Z" fill="#253D95" fill-opacity="0.05"/>
<path d="M930.472 541.884C930.472 535.531 925.341 530.156 918.745 530.156L543.466 530.156C537.114 530.156 531.739 535.287 531.739 541.884C531.739 548.236 536.869 553.611 543.466 553.611L918.745 553.611C925.097 553.611 930.472 548.481 930.472 541.884Z" fill="#253D95" fill-opacity="0.05"/>
<path d="M202.881 -118.03C202.881 -10.5282 290.349 77.1835 398.095 77.1835C500.221 77.1835 583.535 160.253 583.535 262.624C583.535 268.976 588.666 274.351 595.262 274.351C601.615 274.351 606.99 269.221 606.99 262.624C606.99 147.548 513.414 53.9729 398.339 53.9729C303.542 53.9729 226.581 -23.2329 226.581 -117.785C226.581 -124.138 221.45 -129.513 214.853 -129.513C208.012 -129.757 202.881 -124.626 202.881 -118.03Z" fill="#253D95" fill-opacity="0.05"/>
<path d="M239.774 398.955C235.621 403.842 235.865 411.171 240.752 415.325C314.537 480.559 409.334 516.474 507.796 516.474L656.343 516.474C662.696 516.474 668.071 511.343 668.071 504.747C668.071 498.394 662.94 493.019 656.343 493.019L507.796 493.019C414.953 493.019 325.531 459.303 256.144 397.734C251.502 393.58 244.172 394.069 239.774 398.955Z" fill="#253D95" fill-opacity="0.05"/>
<path d="M269.337 520.383C272.757 515.008 271.047 507.679 265.428 504.258C125.431 418.501 41.8729 269.22 41.873 105.28C41.873 98.9279 36.7422 93.5528 30.1455 93.5528C23.7932 93.5528 18.4181 98.6836 18.4181 105.28C18.4181 190.793 40.6513 275.084 82.919 348.869C123.965 420.456 182.602 481.048 252.967 524.293C254.922 525.514 256.876 526.003 259.075 526.003C263.473 526.003 267.138 524.048 269.337 520.383Z" fill="#253D95" fill-opacity="0.05"/>
<path d="M675.889 504.747C675.889 511.099 681.02 516.474 687.616 516.474L881.852 516.474C888.205 516.474 893.58 511.343 893.58 504.747C893.58 498.394 888.449 493.019 881.852 493.019L687.616 493.019C681.264 493.264 675.889 498.394 675.889 504.747Z" fill="#253D95" fill-opacity="0.05"/>
<path d="M560.324 397.49C575.961 423.388 599.171 437.314 627.024 437.314C633.376 437.314 638.751 432.183 638.751 425.586C638.751 419.234 633.621 413.859 627.024 413.859C606.99 413.859 591.842 404.575 580.114 385.273C576.694 379.654 569.608 377.944 564.233 381.364C558.614 384.785 556.904 392.114 560.324 397.49Z" fill="#253D95" fill-opacity="0.05"/>
<path d="M201.415 2.17651C218.518 40.7794 253.211 72.2969 296.212 88.6665C297.678 89.1552 298.9 89.3995 300.366 89.3995C305.008 89.3995 309.406 86.4677 311.36 81.8255C313.559 75.7175 310.627 69.1208 304.519 66.9219C267.138 52.7512 237.331 25.8758 222.671 -7.1077C219.984 -12.9714 213.143 -15.659 207.279 -12.9715C201.415 -10.5283 198.728 -3.68722 201.415 2.17651Z" fill="#253D95" fill-opacity="0.05"/>
<path d="M658.053 425.586C658.053 431.939 663.184 437.314 669.781 437.314L812.22 437.314C818.573 437.314 823.948 432.183 823.948 425.586C823.948 419.234 818.817 413.859 812.22 413.859L669.781 413.859C663.428 414.103 658.053 419.234 658.053 425.586Z" fill="#253D95" fill-opacity="0.05"/>
</g>
<g clip-path="url(#clip1)">
<path d="M1824.87 648.52C1820.38 653.012 1820.21 660.441 1824.87 665.105C1857.35 697.584 1884.3 734.555 1904.86 775.154C1989.34 941.869 1957.21 1142.96 1824.87 1275.3L1547.94 1552.24C1503.88 1596.29 1479.52 1654.86 1479.7 1717.22C1479.7 1779.42 1503.88 1838.16 1547.94 1882.21C1552.43 1886.7 1559.86 1886.88 1564.52 1882.21C1569.01 1877.72 1569.19 1870.29 1564.52 1865.63C1524.79 1825.89 1503.02 1773.37 1503.02 1717.05C1503.02 1661.08 1524.79 1608.21 1564.52 1568.48L1841.46 1291.54C1910.56 1222.43 1954.96 1134.84 1969.48 1038.44C1983.82 943.942 1968.61 849.269 1925.59 764.443C1903.83 721.598 1875.49 682.554 1841.29 648.347C1836.97 644.028 1829.54 643.855 1824.87 648.52Z" fill="#253D95" fill-opacity="0.05"/>
<path d="M1452.23 1780.97C1453.96 1787.19 1460.17 1790.99 1466.39 1789.27C1472.61 1787.54 1476.41 1781.32 1474.69 1775.1C1454.13 1695.8 1476.76 1605.79 1531.53 1551.03C1536.02 1546.54 1536.19 1539.11 1531.53 1534.44C1527.03 1529.95 1519.6 1529.78 1514.94 1534.44C1453.78 1595.95 1428.9 1692.69 1452.23 1780.97Z" fill="#253D95" fill-opacity="0.05"/>
<path d="M1687.53 783.792L1662.31 809.016L1662.13 809.188L1633.45 837.867C1576.96 894.36 1576.79 986.442 1633.45 1043.11C1720.53 1130.18 1720.7 1272.02 1633.45 1359.26L1501.64 1491.08C1455.68 1537.03 1424.76 1594.91 1412.49 1658.66C1411.28 1665.05 1415.26 1671.1 1421.65 1672.31C1428.04 1673.52 1434.09 1669.54 1435.3 1663.15C1446.7 1604.07 1475.2 1550.34 1517.88 1507.66L1649.87 1375.67C1746.1 1279.45 1746.1 1122.92 1649.87 1026.7C1602.36 979.186 1602.53 901.961 1649.87 854.625L1678.37 826.119L1678.55 825.946L1703.77 800.723C1728.13 776.364 1741.6 743.884 1741.6 709.332C1741.6 674.78 1728.13 642.3 1703.77 617.941L1479.18 393.351C1474.69 388.859 1467.26 388.686 1462.59 393.351C1458.1 397.843 1457.93 405.271 1462.59 409.936L1687.18 634.526C1707.22 654.566 1718.28 681.172 1718.28 709.505C1718.63 737.147 1707.57 763.752 1687.53 783.792Z" fill="#253D95" fill-opacity="0.05"/>
<path d="M1602.7 1062.46C1607.19 1066.95 1614.62 1067.12 1619.29 1062.46C1623.95 1057.79 1623.95 1050.54 1619.29 1045.87C1558.99 985.578 1558.82 887.277 1619.29 826.81L1670.08 776.018C1674.57 771.526 1674.74 764.098 1670.08 759.433C1665.59 754.941 1658.16 754.769 1653.49 759.433L1602.7 810.225C1533.25 880.021 1533.25 993.007 1602.7 1062.46Z" fill="#253D95" fill-opacity="0.05"/>
<path d="M1775.64 705.704C1771.15 710.196 1770.97 717.625 1775.64 722.289C1910.74 857.389 1910.91 1077.31 1775.64 1212.59C1771.15 1217.08 1770.97 1224.51 1775.64 1229.17C1780.13 1233.66 1787.56 1233.84 1792.22 1229.17C1936.48 1084.92 1936.48 850.306 1792.22 706.05C1787.73 701.212 1780.3 701.04 1775.64 705.704Z" fill="#253D95" fill-opacity="0.05"/>
<path d="M1899.68 1070.23C1882.58 1131.56 1849.75 1187.88 1804.49 1233.15L1667.14 1370.49C1662.65 1374.98 1662.48 1382.41 1667.14 1387.08C1671.64 1391.57 1679.06 1391.74 1683.73 1387.08L1821.07 1249.73C1869.27 1201.53 1904.17 1141.75 1922.14 1076.45C1923.18 1072.3 1921.97 1067.99 1919.2 1065.22C1917.82 1063.84 1916.09 1062.8 1914.19 1062.28C1907.8 1060.38 1901.41 1064.01 1899.68 1070.23Z" fill="#253D95" fill-opacity="0.05"/>
<path d="M1538.44 362.081C1533.94 366.573 1533.77 374.002 1538.44 378.666L1803.8 644.028C1808.29 648.52 1815.72 648.693 1820.38 644.028C1824.87 639.536 1825.05 632.108 1820.38 627.443L1555.02 362.081C1550.53 357.589 1543.1 357.417 1538.44 362.081Z" fill="#253D95" fill-opacity="0.05"/>
<path d="M1586.29 1343.19C1662.31 1267.18 1662.48 1143.31 1586.29 1067.12C1514.08 994.907 1513.9 877.257 1586.29 804.869C1590.78 800.378 1590.96 792.949 1586.29 788.284C1581.8 783.793 1574.37 783.62 1569.71 788.284C1488.33 869.655 1488.33 1001.99 1569.71 1083.36C1636.74 1150.39 1636.56 1259.41 1569.71 1326.26C1565.21 1330.76 1565.04 1338.18 1569.71 1342.85C1574.37 1347.86 1581.63 1347.86 1586.29 1343.19Z" fill="#253D95" fill-opacity="0.05"/>
<path d="M1482.46 1494.02L1609.61 1366.86C1614.11 1362.37 1614.28 1354.94 1609.61 1350.28C1605.12 1345.79 1597.69 1345.61 1593.03 1350.28L1465.88 1477.43C1392.28 1551.03 1358.25 1652.44 1372.93 1755.58C1373.79 1761.97 1379.67 1766.46 1386.06 1765.6C1392.45 1764.73 1396.94 1758.86 1396.08 1752.47C1382.6 1656.41 1414.22 1562.26 1482.46 1494.02Z" fill="#253D95" fill-opacity="0.05"/>
<path d="M1925.77 951.544C1932.16 951.026 1937.17 945.67 1936.65 939.278C1930.6 840.977 1888.97 748.549 1819.35 678.926L1714.31 573.887C1709.81 569.395 1702.39 569.222 1697.72 573.887C1693.23 578.379 1693.06 585.808 1697.72 590.472L1802.76 695.511C1868.41 761.161 1907.8 848.233 1913.33 940.833C1913.67 947.052 1919.2 951.89 1925.77 951.544Z" fill="#253D95" fill-opacity="0.05"/>
<path d="M1990.73 844.777C1984.51 846.159 1980.53 852.552 1982.09 858.944C2020.44 1018.58 1973.97 1183.22 1858.04 1299.14C1853.55 1303.63 1853.38 1311.06 1858.04 1315.73C1862.54 1320.22 1869.97 1320.39 1874.63 1315.73C1935.1 1255.26 1978.98 1179.94 2001.26 1097.87C2022.86 1018.23 2024.24 933.922 2005.06 853.588C2004.55 851.342 2003.51 849.615 2001.96 848.06C1998.85 844.95 1994.87 843.741 1990.73 844.777Z" fill="#253D95" fill-opacity="0.05"/>
<path d="M1692.19 568.359C1696.69 563.867 1696.86 556.438 1692.19 551.774L1554.85 414.428C1550.36 409.936 1542.93 409.763 1538.26 414.428C1533.77 418.92 1533.6 426.349 1538.26 431.013L1675.61 568.359C1680.27 572.678 1687.7 572.85 1692.19 568.359Z" fill="#253D95" fill-opacity="0.05"/>
<path d="M1483.5 1445.99L1555.02 1374.46C1559.51 1369.97 1559.69 1362.54 1555.02 1357.88C1550.53 1353.39 1543.1 1353.22 1538.44 1357.88L1466.91 1429.4C1462.42 1433.89 1462.25 1441.32 1466.91 1445.99C1471.75 1450.48 1479.01 1450.48 1483.5 1445.99Z" fill="#253D95" fill-opacity="0.05"/>
<path d="M1698.07 725.917C1705.32 696.548 1698.76 670.288 1679.06 650.593C1674.57 646.102 1667.14 645.929 1662.48 650.593C1657.99 655.085 1657.81 662.514 1662.48 667.178C1676.65 681.345 1680.79 698.621 1675.44 720.562C1673.88 726.954 1677.68 733.173 1683.9 734.555C1690.29 736.11 1696.69 732.137 1698.07 725.917Z" fill="#253D95" fill-opacity="0.05"/>
<path d="M1558.82 1490.91C1554.33 1495.4 1554.16 1502.83 1558.82 1507.49C1563.31 1511.98 1570.74 1512.16 1575.41 1507.49L1651.42 1431.48C1655.91 1426.98 1656.09 1419.56 1651.42 1414.89C1646.93 1410.4 1639.5 1410.23 1634.84 1414.89L1558.82 1490.91Z" fill="#253D95" fill-opacity="0.05"/>
<path d="M1672.33 1259.23C1687.53 1219.84 1685.28 1173.02 1666.45 1131.04C1665.76 1129.66 1665.07 1128.62 1664.03 1127.59C1660.75 1124.31 1655.57 1123.27 1650.9 1125.17C1645.03 1127.93 1642.44 1134.67 1645.2 1140.55C1661.61 1177 1663.69 1217.08 1650.73 1250.77C1648.48 1256.81 1651.42 1263.55 1657.47 1265.8C1663.34 1268.22 1670.08 1265.28 1672.33 1259.23Z" fill="#253D95" fill-opacity="0.05"/>
<path d="M1648.83 636.945C1653.32 632.453 1653.49 625.025 1648.83 620.36L1548.11 519.64C1543.62 515.148 1536.19 514.975 1531.52 519.64C1527.03 524.132 1526.86 531.56 1531.52 536.225L1632.25 636.945C1636.91 641.264 1644.34 641.437 1648.83 636.945Z" fill="#253D95" fill-opacity="0.05"/>
</g>
<defs>
<clipPath id="clip0">
<rect width="1495.25" height="1935.03" fill="white" transform="translate(1369.03 -754) rotate(90)"/>
</clipPath>
<clipPath id="clip1">
<rect width="1495.25" height="1935.03" fill="white" transform="translate(312 968.302) rotate(-45)"/>
</clipPath>
</defs>
</svg>
