<svg width="27" height="35" viewBox="0 0 27 35" fill="none" xmlns="http://www.w3.org/2000/svg">
<path d="M13.0099 12.6231L13.15 13.1341L13.6514 13.3051L23.4539 16.6491L25.5299 30.9543L5.46094 33.8668L1.13325 4.04572L10.2934 2.71639L13.0099 12.6231Z" fill="#253D95" stroke="#253D95" stroke-width="2"/>
<path d="M17.5657 9.9973H23.4208V32.4187H3.1416V2.28528H16.5657V8.9973V9.9973H17.5657Z" fill="white" stroke="#253D95" stroke-width="2"/>
<path d="M17.5664 1.28528L24.4215 8.9973H17.5664V1.28528Z" fill="#253D95"/>
<path d="M11.2344 20.4121C11.2344 21.2292 11.0488 21.8818 10.6777 22.3701C10.3066 22.8551 9.80859 23.0977 9.18359 23.0977C8.60417 23.0977 8.1403 22.9072 7.79199 22.5264V25.0312H6.60547V17.7168H7.69922L7.74805 18.2539C8.09635 17.8307 8.56999 17.6191 9.16895 17.6191C9.81348 17.6191 10.318 17.86 10.6826 18.3418C11.0505 18.8203 11.2344 19.486 11.2344 20.3389V20.4121ZM10.0527 20.3096C10.0527 19.7822 9.94694 19.3639 9.73535 19.0547C9.52702 18.7454 9.22754 18.5908 8.83691 18.5908C8.35189 18.5908 8.00358 18.791 7.79199 19.1914V21.5352C8.00684 21.9453 8.3584 22.1504 8.84668 22.1504C9.22428 22.1504 9.51888 21.999 9.73047 21.6963C9.94531 21.3903 10.0527 20.9281 10.0527 20.3096ZM12.0205 20.3193C12.0205 19.5055 12.2093 18.8529 12.5869 18.3613C12.9645 17.8665 13.4707 17.6191 14.1055 17.6191C14.6654 17.6191 15.1178 17.8145 15.4629 18.2051V15.5H16.6494V23H15.5752L15.5166 22.4531C15.1618 22.8828 14.6882 23.0977 14.0957 23.0977C13.4772 23.0977 12.9759 22.8486 12.5918 22.3506C12.2109 21.8525 12.0205 21.1755 12.0205 20.3193ZM13.207 20.4219C13.207 20.959 13.3096 21.3789 13.5146 21.6816C13.723 21.9811 14.0176 22.1309 14.3984 22.1309C14.8835 22.1309 15.2383 21.9144 15.4629 21.4814V19.2256C15.2448 18.8024 14.8932 18.5908 14.4082 18.5908C14.0241 18.5908 13.7279 18.7438 13.5195 19.0498C13.3112 19.3525 13.207 19.8099 13.207 20.4219ZM18.3047 23V18.5957H17.499V17.7168H18.3047V17.2334C18.3047 16.6475 18.4674 16.195 18.793 15.876C19.1185 15.557 19.5742 15.3975 20.1602 15.3975C20.3685 15.3975 20.5898 15.4268 20.8242 15.4854L20.7949 16.4131C20.6647 16.387 20.5133 16.374 20.3408 16.374C19.7744 16.374 19.4912 16.6654 19.4912 17.248V17.7168H20.5654V18.5957H19.4912V23H18.3047Z" fill="#253D95"/>
</svg>
