<svg viewBox="0 0 26 26" xmlns="http://www.w3.org/2000/svg">
<path d="M20.5481 16.1061C20.0158 15.5518 19.3738 15.2555 18.6933 15.2555C18.0184 15.2555 17.3708 15.5464 16.8166 16.1006L15.0826 17.8291C14.9399 17.7523 14.7972 17.681 14.66 17.6096C14.4625 17.5109 14.2759 17.4176 14.1168 17.3188C12.4925 16.2872 11.0163 14.9427 9.60056 13.2032C8.91463 12.3362 8.45368 11.6063 8.11895 10.8655C8.56892 10.454 8.98597 10.0259 9.39204 9.61439C9.54569 9.46074 9.69934 9.3016 9.85299 9.14795C11.0054 7.99558 11.0054 6.50299 9.85299 5.35062L8.35491 3.85254C8.1848 3.68243 8.0092 3.50683 7.84457 3.33123C7.51532 2.99101 7.16961 2.63981 6.81293 2.31056C6.28064 1.78376 5.64409 1.5039 4.97462 1.5039C4.30515 1.5039 3.65763 1.78376 3.10888 2.31056C3.10339 2.31605 3.10339 2.31605 3.0979 2.32153L1.23216 4.20374C0.529764 4.90613 0.129179 5.76218 0.041379 6.75541C-0.0903205 8.35776 0.381603 9.85035 0.743776 10.8271C1.63275 13.2251 2.96072 15.4476 4.9417 17.8291C7.34521 20.6991 10.2371 22.9654 13.5406 24.5623C14.8027 25.1604 16.4874 25.8683 18.3696 25.989C18.4848 25.9945 18.6055 26 18.7153 26C19.9829 26 21.0474 25.5445 21.8815 24.6391C21.887 24.6281 21.898 24.6226 21.9035 24.6117C22.1888 24.266 22.5181 23.9532 22.8638 23.6184C23.0998 23.3934 23.3412 23.1575 23.5772 22.9105C24.1204 22.3453 24.4058 21.6868 24.4058 21.0119C24.4058 20.3314 24.1149 19.6784 23.5607 19.1297L20.5481 16.1061ZM22.5126 21.8844C22.5071 21.8844 22.5071 21.8899 22.5126 21.8844C22.2986 22.1149 22.0791 22.3234 21.8431 22.5539C21.4864 22.8941 21.1243 23.2508 20.784 23.6514C20.2298 24.244 19.5768 24.5239 18.7208 24.5239C18.6384 24.5239 18.5506 24.5239 18.4683 24.5184C16.8385 24.4141 15.324 23.7776 14.1881 23.2343C11.0822 21.7307 8.35491 19.5961 6.08858 16.8908C4.21735 14.6354 2.9662 12.5502 2.1376 10.3113C1.62726 8.94492 1.44069 7.88035 1.523 6.87614C1.57787 6.2341 1.82481 5.70182 2.28027 5.24636L4.1515 3.37513C4.42039 3.1227 4.70574 2.98552 4.9856 2.98552C5.33131 2.98552 5.61117 3.19404 5.78677 3.36964C5.79226 3.37513 5.79774 3.38062 5.80323 3.3861C6.13797 3.69889 6.45624 4.02265 6.79098 4.36836C6.96109 4.54396 7.13669 4.71956 7.31229 4.90065L8.81037 6.39873C9.39204 6.9804 9.39204 7.51817 8.81037 8.09985C8.65123 8.25898 8.49758 8.41812 8.33844 8.57177C7.8775 9.04369 7.4385 9.48269 6.96109 9.91071C6.95011 9.92169 6.93914 9.92718 6.93365 9.93815C6.46173 10.4101 6.54953 10.871 6.6483 11.1838C6.65379 11.2003 6.65928 11.2167 6.66476 11.2332C7.05438 12.177 7.60312 13.066 8.43722 14.1251L8.44271 14.1306C9.95725 15.9963 11.5541 17.4505 13.3156 18.5645C13.5406 18.7071 13.771 18.8224 13.9905 18.9321C14.1881 19.0309 14.3747 19.1242 14.5338 19.223C14.5558 19.2339 14.5777 19.2504 14.5997 19.2614C14.7862 19.3547 14.9618 19.3986 15.1429 19.3986C15.5984 19.3986 15.8837 19.1132 15.977 19.0199L17.8537 17.1432C18.0403 16.9566 18.3366 16.7316 18.6823 16.7316C19.0226 16.7316 19.3024 16.9457 19.4725 17.1322C19.478 17.1377 19.478 17.1377 19.4835 17.1432L22.5071 20.1668C23.0723 20.7265 23.0723 21.3027 22.5126 21.8844Z"/>
<path d="M14.0509 6.18472C15.4887 6.42617 16.7947 7.10661 17.8373 8.14923C18.8799 9.19185 19.5549 10.4979 19.8018 11.9356C19.8622 12.2978 20.175 12.5502 20.5316 12.5502C20.5755 12.5502 20.614 12.5447 20.6579 12.5392C21.0639 12.4734 21.3328 12.0892 21.267 11.6832C20.9706 9.94364 20.1475 8.35776 18.8909 7.10113C17.6343 5.84449 16.0484 5.02137 14.3089 4.72505C13.9028 4.6592 13.5241 4.92808 13.4528 5.32867C13.3815 5.72926 13.6449 6.11887 14.0509 6.18472Z"/>
<path d="M25.9697 11.4692C25.4813 8.6047 24.1314 5.99814 22.0571 3.92388C19.9829 1.84961 17.3763 0.499691 14.5118 0.0113055C14.1113 -0.0600317 13.7326 0.214342 13.6613 0.614928C13.5954 1.021 13.8643 1.39964 14.2704 1.47097C16.8276 1.90449 19.1597 3.11722 21.0145 4.9665C22.8693 6.82127 24.0765 9.15344 24.51 11.7106C24.5704 12.0728 24.8832 12.3252 25.2399 12.3252C25.2838 12.3252 25.3222 12.3197 25.3661 12.3142C25.7667 12.2539 26.041 11.8697 25.9697 11.4692Z"/>
</svg>
