<svg viewBox="0 0 28 28" xmlns="http://www.w3.org/2000/svg">
<path d="M26.0983 15.6492C26.648 14.8188 26.9226 13.9048 26.9226 12.9064C26.9226 11.7509 26.4968 10.7472 25.6444 9.89384C24.7917 9.04135 23.782 8.61519 22.6155 8.61519H19.654C20.1923 7.50473 20.4619 6.4277 20.4619 5.3846C20.4619 4.07206 20.2651 3.02891 19.8728 2.25486C19.4801 1.48057 18.9079 0.911431 18.1563 0.546682C17.4044 0.182109 16.5578 0 15.6155 0C15.0431 0 14.5385 0.20751 14.1011 0.622708C13.6188 1.09378 13.271 1.69969 13.058 2.44009C12.8448 3.18025 12.6736 3.88989 12.5448 4.56859C12.4159 5.24723 12.2165 5.72678 11.9474 6.00719C11.3976 6.60173 10.7976 7.31986 10.1469 8.16109C9.01395 9.63046 8.24544 10.4999 7.84179 10.7693H3.23142C2.63688 10.7693 2.12922 10.9799 1.70854 11.4002C1.28803 11.821 1.07764 12.3286 1.07764 12.9232V23.692C1.07764 24.2866 1.2878 24.794 1.70854 25.2147C2.12945 25.6355 2.63688 25.846 3.23142 25.846H8.07712C8.32394 25.846 9.09782 26.0703 10.3991 26.519C11.779 27.0015 12.9932 27.3687 14.042 27.6212C15.0909 27.8737 16.1538 28 17.2307 28H18.7952H19.4013C20.9828 28 22.256 27.5482 23.2208 26.6451C24.1853 25.742 24.6622 24.5109 24.6511 22.9516C25.3242 22.0878 25.6606 21.0894 25.6606 19.9566C25.6606 19.71 25.6441 19.4688 25.6103 19.233C26.0364 18.4817 26.2499 17.674 26.2499 16.8102C26.2498 16.4063 26.1994 16.0191 26.0983 15.6492ZM5.06554 23.3725C4.85243 23.5855 4.60007 23.6924 4.3084 23.6924C4.01667 23.6924 3.76425 23.5855 3.55108 23.3725C3.33803 23.1595 3.23142 22.9071 3.23142 22.6152C3.23142 22.3235 3.3378 22.0712 3.55108 21.858C3.76449 21.6449 4.01667 21.5383 4.3084 21.5383C4.60007 21.5383 4.85243 21.6449 5.06554 21.858C5.27871 22.0712 5.38532 22.3235 5.38532 22.6152C5.38532 22.9071 5.27871 23.1595 5.06554 23.3725ZM24.4078 14.287C24.1666 14.8029 23.8664 15.0665 23.5075 15.0776C23.6757 15.2684 23.816 15.5351 23.9282 15.8769C24.0403 16.2191 24.096 16.5303 24.096 16.8109C24.096 17.5845 23.7992 18.2521 23.2046 18.8128C23.4067 19.1716 23.5076 19.5588 23.5076 19.9737C23.5076 20.3888 23.4096 20.801 23.2131 21.2104C23.017 21.6194 22.7504 21.9139 22.414 22.0933C22.4701 22.4298 22.4979 22.744 22.4979 23.0356C22.4979 24.9089 21.4209 25.8455 19.2669 25.8455H17.2315C15.7617 25.8455 13.8437 25.4363 11.4766 24.6172C11.4204 24.5948 11.258 24.5357 10.9886 24.4406C10.7192 24.3454 10.5202 24.2752 10.3911 24.2305C10.2621 24.1852 10.0659 24.1208 9.80215 24.0368C9.53842 23.9525 9.32554 23.8908 9.16276 23.8517C9.00022 23.8125 8.81499 23.7761 8.60765 23.7424C8.4002 23.7087 8.22346 23.692 8.07765 23.692H7.53922V12.9236H8.07765C8.25711 12.9236 8.45619 12.873 8.67496 12.7722C8.89367 12.6712 9.11815 12.5198 9.34806 12.3178C9.57808 12.1159 9.79384 11.9168 9.99587 11.7204C10.1978 11.5241 10.4221 11.2773 10.669 10.9802C10.9158 10.6828 11.1093 10.4445 11.2496 10.265C11.3897 10.0856 11.5664 9.85548 11.7795 9.57507C11.9926 9.29471 12.1217 9.12639 12.1666 9.07023C12.7834 8.30755 13.2153 7.79717 13.4621 7.53903C13.922 7.05683 14.2557 6.44267 14.4632 5.69667C14.671 4.95055 14.842 4.24663 14.9761 3.5849C15.1106 2.92312 15.324 2.44622 15.616 2.15455C16.6927 2.15455 17.4108 2.41805 17.7696 2.94534C18.1284 3.47251 18.308 4.28588 18.308 5.38519C18.308 6.04698 18.0385 6.94715 17.5 8.08566C16.9616 9.22428 16.6927 10.1189 16.6927 10.7695H22.6153C23.1768 10.7695 23.6758 10.9853 24.1131 11.4174C24.5507 11.8493 24.7698 12.3511 24.7698 12.9234C24.7696 13.316 24.649 13.7704 24.4078 14.287Z"/>
</svg>
