<svg width="26" height="28" viewBox="0 0 26 28" fill="none" xmlns="http://www.w3.org/2000/svg">
<path d="M25.0983 15.6492C25.648 14.8188 25.9226 13.9048 25.9226 12.9064C25.9226 11.7509 25.4968 10.7472 24.6444 9.89384C23.7917 9.04135 22.782 8.61519 21.6155 8.61519H18.654C19.1923 7.50473 19.4619 6.4277 19.4619 5.3846C19.4619 4.07206 19.2651 3.02891 18.8728 2.25486C18.4801 1.48057 17.9079 0.911431 17.1563 0.546682C16.4044 0.182109 15.5578 0 14.6155 0C14.0431 0 13.5385 0.20751 13.1011 0.622708C12.6188 1.09378 12.271 1.69969 12.058 2.44009C11.8448 3.18025 11.6736 3.88989 11.5448 4.56859C11.4159 5.24723 11.2165 5.72678 10.9474 6.00719C10.3976 6.60173 9.79757 7.31986 9.14692 8.16109C8.01395 9.63046 7.24544 10.4999 6.84179 10.7693H2.23142C1.63688 10.7693 1.12922 10.9799 0.708537 11.4002C0.288035 11.821 0.0776367 12.3286 0.0776367 12.9232V23.692C0.0776367 24.2866 0.287799 24.794 0.708537 25.2147C1.12945 25.6355 1.63688 25.846 2.23142 25.846H7.07712C7.32394 25.846 8.09782 26.0703 9.3991 26.519C10.779 27.0015 11.9932 27.3687 13.042 27.6212C14.0909 27.8737 15.1538 28 16.2307 28H17.7952H18.4013C19.9828 28 21.256 27.5482 22.2208 26.6451C23.1853 25.742 23.6622 24.5109 23.6511 22.9516C24.3242 22.0878 24.6606 21.0894 24.6606 19.9566C24.6606 19.71 24.6441 19.4688 24.6103 19.233C25.0364 18.4817 25.2499 17.674 25.2499 16.8102C25.2498 16.4063 25.1994 16.0191 25.0983 15.6492ZM4.06554 23.3725C3.85243 23.5855 3.60007 23.6924 3.3084 23.6924C3.01667 23.6924 2.76425 23.5855 2.55108 23.3725C2.33803 23.1595 2.23142 22.9071 2.23142 22.6152C2.23142 22.3235 2.3378 22.0712 2.55108 21.858C2.76449 21.6449 3.01667 21.5383 3.3084 21.5383C3.60007 21.5383 3.85243 21.6449 4.06554 21.858C4.27871 22.0712 4.38532 22.3235 4.38532 22.6152C4.38532 22.9071 4.27871 23.1595 4.06554 23.3725ZM23.4078 14.287C23.1666 14.8029 22.8664 15.0665 22.5075 15.0776C22.6757 15.2684 22.816 15.5351 22.9282 15.8769C23.0403 16.2191 23.096 16.5303 23.096 16.8109C23.096 17.5845 22.7992 18.2521 22.2046 18.8128C22.4067 19.1716 22.5076 19.5588 22.5076 19.9737C22.5076 20.3888 22.4096 20.801 22.2131 21.2104C22.017 21.6194 21.7504 21.9139 21.414 22.0933C21.4701 22.4298 21.4979 22.744 21.4979 23.0356C21.4979 24.9089 20.4209 25.8455 18.2669 25.8455H16.2315C14.7617 25.8455 12.8437 25.4363 10.4766 24.6172C10.4204 24.5948 10.258 24.5357 9.98863 24.4406C9.71924 24.3454 9.52022 24.2752 9.39115 24.2305C9.26208 24.1852 9.06594 24.1208 8.80215 24.0368C8.53842 23.9525 8.32554 23.8908 8.16276 23.8517C8.00022 23.8125 7.81499 23.7761 7.60765 23.7424C7.4002 23.7087 7.22346 23.692 7.07765 23.692H6.53922V12.9236H7.07765C7.25711 12.9236 7.45619 12.873 7.67496 12.7722C7.89367 12.6712 8.11815 12.5198 8.34806 12.3178C8.57808 12.1159 8.79384 11.9168 8.99587 11.7204C9.19784 11.5241 9.42215 11.2773 9.66903 10.9802C9.91579 10.6828 10.1093 10.4445 10.2496 10.265C10.3897 10.0856 10.5664 9.85548 10.7795 9.57507C10.9926 9.29471 11.1217 9.12639 11.1666 9.07023C11.7834 8.30755 12.2153 7.79717 12.4621 7.53903C12.922 7.05683 13.2557 6.44267 13.4632 5.69667C13.671 4.95055 13.842 4.24663 13.9761 3.5849C14.1106 2.92312 14.324 2.44622 14.616 2.15455C15.6927 2.15455 16.4108 2.41805 16.7696 2.94534C17.1284 3.47251 17.308 4.28588 17.308 5.38519C17.308 6.04698 17.0385 6.94715 16.5 8.08566C15.9616 9.22428 15.6927 10.1189 15.6927 10.7695H21.6153C22.1768 10.7695 22.6758 10.9853 23.1131 11.4174C23.5507 11.8493 23.7698 12.3511 23.7698 12.9234C23.7696 13.316 23.649 13.7704 23.4078 14.287Z" fill="#253D95"/>
</svg>
