<svg width="237" height="30" viewBox="0 0 237 30" fill="none" xmlns="http://www.w3.org/2000/svg">
<path d="M33.9968 0.894535L31.304 7.64194L40.841 4.31859L30.743 9.15255L28.499 14.9936L38.036 11.6702L27.938 16.5042L25.6939 22.3452L35.231 19.0219L25.1329 23.8558L22.8889 29.6969C35.3432 29.6969 45.3291 20.6332 45.3291 9.55538V1.09595H33.9968V0.894535Z" fill="white"/>
<path d="M8.63946 29.4955H0C0 13.6844 14.2495 0.894535 31.865 0.894535L8.63946 29.4955Z" fill="white"/>
<path d="M11.781 29.4955L32.9869 0.894535L19.4107 29.4955H11.781Z" fill="white"/>
<path d="M45.217 9.35396V0.894535C45.217 0.894535 45.217 20.6332 22.7769 29.4955C35.1189 29.4955 45.217 20.5325 45.217 9.35396Z" fill="white"/>
<path d="M72.2574 7.74413H76.0722V9.35545H79.4383C80.4481 9.35545 81.3457 9.45615 82.1311 9.75828C82.9165 10.0604 83.7019 10.4632 84.2629 10.9668C84.8239 11.4703 85.3849 12.0745 85.7215 12.7795C86.0581 13.4845 86.2825 14.2901 86.2825 15.1965C86.2825 16.1028 86.0581 16.9085 85.7215 17.6135C85.3849 18.3184 84.9361 18.9227 84.2629 19.4262C83.7019 19.9297 82.9165 20.3326 82.1311 20.534C81.3457 20.7354 80.3359 20.9368 79.4383 20.9368H76.0722V22.6488H72.2574V20.9368H68.8914C67.8816 20.9368 66.984 20.8361 66.1985 20.534C65.4131 20.2319 64.6277 19.829 64.0667 19.4262C63.5057 18.9227 62.9447 18.3184 62.6081 17.6135C62.2715 16.9085 62.0471 16.1028 62.0471 15.1965C62.0471 14.2901 62.2715 13.4845 62.6081 12.7795C62.9447 12.0745 63.3935 11.4703 64.0667 10.9668C64.6277 10.4632 65.4131 10.0604 66.1985 9.75828C66.984 9.45615 67.9938 9.35545 68.8914 9.35545H72.2574V7.74413ZM69.0036 12.3767C67.9938 12.3767 67.2084 12.5781 66.6474 13.0816C66.0863 13.5852 65.7497 14.1894 65.7497 15.1965C65.7497 16.1028 66.0863 16.8078 66.6474 17.2106C67.2084 17.6135 67.9938 17.9156 69.0036 17.9156H72.2574V12.4774H69.0036V12.3767ZM76.0722 17.9156H79.3261C80.3359 17.9156 81.1213 17.7142 81.6823 17.2106C82.2433 16.8078 82.5799 16.1028 82.5799 15.1965C82.5799 14.2901 82.2433 13.5852 81.6823 13.0816C81.1213 12.5781 80.3359 12.3767 79.3261 12.3767H76.0722V17.9156Z" fill="white"/>
<path d="M103.898 7.74413V10.7653H92.4535V13.5852H102.664V16.6064H92.4535V19.6276H104.235V22.7495H88.6387V7.74413H103.898Z" fill="white"/>
<path d="M116.913 7.74413C117.923 7.74413 118.821 7.84483 119.606 8.14696C120.391 8.44908 121.177 8.85191 121.738 9.35545C122.299 9.85898 122.86 10.4632 123.197 11.1682C123.533 11.8731 123.758 12.6788 123.758 13.5852C123.758 14.4915 123.533 15.2972 123.197 16.0021C122.86 16.7071 122.411 17.3113 121.738 17.8149C121.177 18.3184 120.391 18.7212 119.606 18.9227C118.821 19.2248 117.811 19.3255 116.913 19.3255H110.854V22.6488H107.04V7.74413H116.913ZM110.854 16.3043H116.801C117.811 16.3043 118.596 16.1028 119.157 15.5993C119.718 15.0958 120.055 14.4915 120.055 13.5852C120.055 12.6788 119.718 12.0745 119.157 11.571C118.596 11.0675 117.811 10.8661 116.801 10.8661H110.854V16.3043Z" fill="white"/>
<path d="M135.539 13.5837V16.6049H126.001V13.5837H135.539Z" fill="white"/>
<path d="M154.949 7.74413V10.7653H148.105V22.7495H144.29V10.7653H137.446V7.74413H154.949Z" fill="white"/>
<path d="M167.291 7.74413C168.301 7.74413 169.199 7.84483 169.984 8.14696C170.77 8.44908 171.555 8.85191 172.116 9.35545C172.677 9.85898 173.238 10.4632 173.575 11.1682C173.911 11.8731 174.136 12.6788 174.136 13.5852C174.136 14.4915 173.911 15.2972 173.575 16.0021C173.238 16.7071 172.789 17.3113 172.116 17.8149C171.555 18.3184 170.77 18.7212 169.984 18.9227C169.199 19.2248 168.189 19.3255 167.291 19.3255H161.233V22.6488H157.418V7.74413H167.291ZM161.233 16.3043H167.179C168.189 16.3043 168.974 16.1028 169.535 15.5993C170.096 15.0958 170.433 14.4915 170.433 13.5852C170.433 12.6788 170.096 12.0745 169.535 11.571C168.974 11.0675 168.189 10.8661 167.179 10.8661H161.233V16.3043Z" fill="white"/>
<path d="M189.395 7.74413L196.464 22.7495H192.424L191.302 20.4333H181.092L179.97 22.7495H175.931L183.224 7.74413H189.395ZM182.551 17.5127H189.956L186.927 10.7653H185.58L182.551 17.5127Z" fill="white"/>
<path d="M202.747 7.74413V13.4844H212.172V7.74413H215.987V22.7495H212.172V16.5057H202.747V22.7495H198.932V7.74413H202.747Z" fill="white"/>
<path d="M233.49 12.8787C232.817 12.0731 232.031 11.4688 231.246 10.9653C230.348 10.5625 229.226 10.361 227.992 10.361C227.094 10.361 226.421 10.4617 225.748 10.6632C225.075 10.8646 224.514 11.1667 224.065 11.6702C223.616 12.0731 223.167 12.5766 222.943 13.1809C222.719 13.7851 222.606 14.3893 222.606 15.195C222.606 15.9 222.719 16.6049 223.055 17.2092C223.28 17.8134 223.728 18.3169 224.177 18.7198C224.626 19.1226 225.187 19.4247 225.86 19.7268C226.533 19.9283 227.319 20.029 228.104 20.029C229.451 20.029 230.573 19.8275 231.358 19.4247C232.256 19.0219 233.041 18.4176 233.602 17.5113L236.519 19.0219C235.622 20.3311 234.5 21.3382 233.153 22.0431C231.695 22.7481 230.012 23.0502 228.104 23.0502C226.758 23.0502 225.524 22.8488 224.402 22.5466C223.28 22.1438 222.27 21.6403 221.484 21.036C220.699 20.3311 220.026 19.5254 219.465 18.5183C219.016 17.5113 218.792 16.4035 218.792 15.195C218.792 13.9865 219.016 12.8787 219.577 11.8717C220.026 10.8646 220.699 10.0589 221.597 9.35397C222.494 8.64901 223.392 8.14548 224.514 7.84335C225.636 7.44052 226.87 7.33982 228.216 7.33982C230.124 7.33982 231.807 7.64194 233.265 8.34689C234.724 9.05184 235.846 10.0589 236.631 11.3681L233.49 12.8787Z" fill="white"/>
</svg>
