<svg width="176" height="24" viewBox="0 0 176 24" fill="none" xmlns="http://www.w3.org/2000/svg">
<path d="M25.278 0L23.2757 5.62238L30.367 2.85315L22.8586 6.88112L21.1901 11.7483L28.2813 8.97902L20.773 13.007L19.1044 17.8741L26.1957 15.1049L18.6873 19.1329L17.0188 24C26.2791 24 33.704 16.4476 33.704 7.21678V0.167832H25.278V0Z" fill="#43B75A"/>
<path d="M6.4238 23.8322H0C0 10.6573 10.5951 0 23.693 0L6.4238 23.8322Z" fill="#253D95"/>
<path d="M8.75977 23.8322L24.5273 0L14.4327 23.8322H8.75977Z" fill="#253D95"/>
<path d="M33.6207 7.04895V0C33.6207 0 33.6207 16.4476 16.9355 23.8322C26.1124 23.8322 33.6207 16.3636 33.6207 7.04895Z" fill="#279451"/>
<path d="M53.7263 5.7063H56.5628V7.04896H59.0656C59.8164 7.04896 60.4838 7.13287 61.0678 7.38462C61.6518 7.63637 62.2357 7.97203 62.6529 8.39161C63.07 8.81119 63.4871 9.31469 63.7374 9.9021C63.9877 10.4895 64.1545 11.1608 64.1545 11.9161C64.1545 12.6713 63.9877 13.3427 63.7374 13.9301C63.4871 14.5175 63.1534 15.021 62.6529 15.4406C62.2357 15.8601 61.6518 16.1958 61.0678 16.3636C60.4838 16.5315 59.733 16.6993 59.0656 16.6993H56.5628V18.1259H53.7263V16.6993H51.2235C50.4727 16.6993 49.8053 16.6154 49.2213 16.3636C48.6373 16.1119 48.0533 15.7762 47.6362 15.4406C47.2191 15.021 46.8019 14.5175 46.5517 13.9301C46.3014 13.3427 46.1345 12.6713 46.1345 11.9161C46.1345 11.1608 46.3014 10.4895 46.5517 9.9021C46.8019 9.31469 47.1356 8.81119 47.6362 8.39161C48.0533 7.97203 48.6373 7.63637 49.2213 7.38462C49.8053 7.13287 50.5561 7.04896 51.2235 7.04896H53.7263V5.7063ZM51.3069 9.56644C50.5561 9.56644 49.9721 9.73427 49.555 10.1539C49.1379 10.5734 48.8876 11.0769 48.8876 11.9161C48.8876 12.6713 49.1379 13.2587 49.555 13.5944C49.9721 13.9301 50.5561 14.1818 51.3069 14.1818H53.7263V9.65035H51.3069V9.56644ZM56.5628 14.1818H58.9821C59.733 14.1818 60.3169 14.014 60.7341 13.5944C61.1512 13.2587 61.4015 12.6713 61.4015 11.9161C61.4015 11.1608 61.1512 10.5734 60.7341 10.1539C60.3169 9.73427 59.733 9.56644 58.9821 9.56644H56.5628V14.1818Z" fill="black"/>
<path d="M77.2524 5.7063V8.22378H68.743V10.5734H76.3347V13.0909H68.743V15.6084H77.5027V18.2098H65.9065V5.7063H77.2524Z" fill="black"/>
<path d="M86.9299 5.7063C87.6807 5.7063 88.3481 5.79021 88.9321 6.04196C89.5161 6.29371 90.1001 6.62938 90.5172 7.04896C90.9343 7.46854 91.3514 7.97203 91.6017 8.55945C91.852 9.14686 92.0189 9.81819 92.0189 10.5734C92.0189 11.3287 91.852 12 91.6017 12.5874C91.3514 13.1748 91.0177 13.6783 90.5172 14.0979C90.1001 14.5175 89.5161 14.8532 88.9321 15.021C88.3481 15.2727 87.5973 15.3566 86.9299 15.3566H82.4249V18.1259H79.5884V5.7063H86.9299ZM82.4249 12.8392H86.8464C87.5973 12.8392 88.1813 12.6713 88.5984 12.2518C89.0155 11.8322 89.2658 11.3287 89.2658 10.5734C89.2658 9.81819 89.0155 9.31469 88.5984 8.89511C88.1813 8.47553 87.5973 8.3077 86.8464 8.3077H82.4249V12.8392Z" fill="black"/>
<path d="M100.778 10.5735V13.091H93.6873V10.5735H100.778Z" fill="black"/>
<path d="M115.211 5.7063V8.22378H110.122V18.2098H107.286V8.22378H102.197V5.7063H115.211Z" fill="black"/>
<path d="M124.388 5.7063C125.139 5.7063 125.806 5.79021 126.39 6.04196C126.974 6.29371 127.558 6.62938 127.975 7.04896C128.393 7.46854 128.81 7.97203 129.06 8.55945C129.31 9.14686 129.477 9.81819 129.477 10.5734C129.477 11.3287 129.31 12 129.06 12.5874C128.81 13.1748 128.476 13.6783 127.975 14.0979C127.558 14.5175 126.974 14.8532 126.39 15.021C125.806 15.2727 125.056 15.3566 124.388 15.3566H119.883V18.1259H117.047V5.7063H124.388ZM119.883 12.8392H124.305C125.056 12.8392 125.64 12.6713 126.057 12.2518C126.474 11.8322 126.724 11.3287 126.724 10.5734C126.724 9.81819 126.474 9.31469 126.057 8.89511C125.64 8.47553 125.056 8.3077 124.305 8.3077H119.883V12.8392Z" fill="black"/>
<path d="M140.823 5.7063L146.079 18.2098H143.076L142.241 16.2797H134.65L133.815 18.2098H130.812L136.235 5.7063H140.823ZM135.734 13.8462H141.24L138.988 8.22378H137.987L135.734 13.8462Z" fill="black"/>
<path d="M150.751 5.7063V10.4895H157.758V5.7063H160.595V18.2098H157.758V13.007H150.751V18.2098H147.914V5.7063H150.751Z" fill="black"/>
<path d="M173.609 9.98605C173.109 9.31472 172.525 8.81122 171.941 8.39164C171.274 8.05598 170.439 7.88815 169.522 7.88815C168.854 7.88815 168.354 7.97206 167.853 8.1399C167.353 8.30773 166.935 8.55948 166.602 8.97906C166.268 9.31472 165.934 9.7343 165.767 10.2378C165.601 10.7413 165.517 11.2448 165.517 11.9161C165.517 12.5035 165.601 13.0909 165.851 13.5944C166.018 14.0979 166.351 14.5175 166.685 14.8532C167.019 15.1888 167.436 15.4406 167.936 15.6923C168.437 15.8602 169.021 15.9441 169.605 15.9441C170.606 15.9441 171.44 15.7763 172.024 15.4406C172.692 15.1049 173.276 14.6014 173.693 13.8462L175.862 15.1049C175.195 16.1958 174.36 17.035 173.359 17.6224C172.275 18.2098 171.023 18.4616 169.605 18.4616C168.604 18.4616 167.686 18.2937 166.852 18.042C166.018 17.7063 165.267 17.2867 164.683 16.7833C164.099 16.1958 163.598 15.5245 163.181 14.6854C162.848 13.8462 162.681 12.9231 162.681 11.9161C162.681 10.9091 162.848 9.98605 163.265 9.14689C163.598 8.30773 164.099 7.6364 164.766 7.04899C165.434 6.46158 166.101 6.042 166.935 5.79025C167.77 5.45458 168.687 5.37067 169.688 5.37067C171.107 5.37067 172.358 5.62241 173.443 6.20983C174.527 6.79724 175.361 7.6364 175.945 8.72731L173.609 9.98605Z" fill="black"/>
</svg>
