<svg width="598" height="326" viewBox="0 0 598 326" fill="none" xmlns="http://www.w3.org/2000/svg">
<g clip-path="url(#clip0)">
<path fill-rule="evenodd" clip-rule="evenodd" d="M295.56 235.932H326.468L320.752 141.093H301.257L295.56 235.932ZM329.016 240.74H292.994C292.338 240.74 291.701 240.466 291.246 239.993C290.809 239.501 290.573 238.864 290.609 238.19L296.598 138.544C296.689 137.269 297.726 136.286 299 136.286H323.009C324.283 136.286 325.321 137.269 325.394 138.544L331.4 238.19C331.437 238.864 331.2 239.501 330.763 239.993C330.308 240.466 329.671 240.74 329.016 240.74Z" fill="#42444F"/>
<path fill-rule="evenodd" clip-rule="evenodd" d="M326.613 138.689H295.396V124.267H326.613V138.689Z" fill="#42444F"/>
<path fill-rule="evenodd" clip-rule="evenodd" d="M297.8 136.286H324.211V126.671H297.8V136.286ZM326.614 141.093H295.397C294.086 141.093 292.994 140 292.994 138.689V124.267C292.994 122.956 294.086 121.881 295.397 121.881H326.614C327.924 121.881 329.016 122.956 329.016 124.267V138.689C329.016 140 327.924 141.093 326.614 141.093Z" fill="#42444F"/>
<path fill-rule="evenodd" clip-rule="evenodd" d="M324.21 156.699H297.799V147.084H324.21V156.699Z" fill="#42444F"/>
<path fill-rule="evenodd" clip-rule="evenodd" d="M324.21 175.911H297.799V166.296H324.21V175.911Z" fill="#42444F"/>
<path fill-rule="evenodd" clip-rule="evenodd" d="M325.412 195.123H296.598V185.508H325.412V195.123Z" fill="#42444F"/>
<path fill-rule="evenodd" clip-rule="evenodd" d="M326.613 214.335H295.396V204.72H326.613V214.335Z" fill="#42444F"/>
<path fill-rule="evenodd" clip-rule="evenodd" d="M326.613 233.547H295.396V223.932H326.613V233.547Z" fill="#42444F"/>
<path fill-rule="evenodd" clip-rule="evenodd" d="M292.994 238.336H287.006V244.345L263.307 256.655H358.704L335.005 244.345V238.336H329.017H292.994Z" fill="#42444F"/>
<path fill-rule="evenodd" clip-rule="evenodd" d="M273.135 254.252H348.874L333.912 246.476C333.111 246.057 332.602 245.237 332.602 244.345V240.74H289.408V244.345C289.408 245.237 288.898 246.057 288.115 246.476L273.135 254.252ZM358.704 259.059H263.306C262.195 259.059 261.231 258.294 260.958 257.22C260.703 256.145 261.213 255.035 262.195 254.525L284.602 242.888V238.336C284.602 237.025 285.676 235.932 287.005 235.932H335.004C336.333 235.932 337.407 237.025 337.407 238.336V242.888L359.814 254.525C360.797 255.035 361.307 256.145 361.052 257.22C360.779 258.294 359.814 259.059 358.704 259.059Z" fill="#42444F"/>
<path fill-rule="evenodd" clip-rule="evenodd" d="M326.614 245.547H321.809V240.74H326.614V245.547Z" fill="#FEFEFE"/>
<path fill-rule="evenodd" clip-rule="evenodd" d="M301.403 121.881H320.606V108.661H301.403V121.881ZM323.009 126.671H299C297.672 126.671 296.598 125.596 296.598 124.267V106.257C296.598 104.946 297.672 103.853 299 103.853H323.009C324.338 103.853 325.412 104.946 325.412 106.257V124.267C325.412 125.596 324.338 126.671 323.009 126.671Z" fill="#42444F"/>
<path fill-rule="evenodd" clip-rule="evenodd" d="M311.014 90.6507L290.609 106.257H299.001H323.009H331.401L311.014 90.6507Z" fill="#42444F"/>
<path fill-rule="evenodd" clip-rule="evenodd" d="M297.691 103.853H324.321L311.015 93.6736L297.691 103.853ZM331.401 108.661H290.61C289.573 108.661 288.662 108.005 288.335 107.04C288.007 106.057 288.335 104.982 289.136 104.363L309.54 88.7386C310.414 88.083 311.597 88.083 312.471 88.7386L332.876 104.363C333.677 104.982 334.004 106.057 333.677 107.04C333.349 108.005 332.439 108.661 331.401 108.661Z" fill="#42444F"/>
<path fill-rule="evenodd" clip-rule="evenodd" d="M313.398 121.881H308.611V113.468H313.398V121.881Z" fill="#42444F"/>
<path fill-rule="evenodd" clip-rule="evenodd" d="M315.802 117.074H306.209V112.266H315.802V117.074Z" fill="#42444F"/>
<path fill-rule="evenodd" clip-rule="evenodd" d="M561.841 259.951H61.3705C60.0417 259.951 58.9678 258.877 58.9678 257.548C58.9678 256.237 60.0417 255.144 61.3705 255.144H561.841C563.169 255.144 564.243 256.237 564.243 257.548C564.243 258.877 563.169 259.951 561.841 259.951Z" fill="#253D95"/>
<path fill-rule="evenodd" clip-rule="evenodd" d="M50.5584 259.951H43.3685C42.0398 259.951 40.9658 258.877 40.9658 257.548C40.9658 256.237 42.0398 255.144 43.3685 255.144H50.5584C51.8872 255.144 52.9611 256.237 52.9611 257.548C52.9611 258.877 51.8872 259.951 50.5584 259.951Z" fill="#253D95"/>
<path fill-rule="evenodd" clip-rule="evenodd" d="M33.7576 259.951H26.5677C25.239 259.951 24.165 258.877 24.165 257.548C24.165 256.237 25.239 255.144 26.5677 255.144H33.7576C35.0864 255.144 36.1603 256.237 36.1603 257.548C36.1603 258.877 35.0864 259.951 33.7576 259.951Z" fill="#253D95"/>
<path fill-rule="evenodd" clip-rule="evenodd" d="M595.442 259.951H588.252C586.924 259.951 585.85 258.877 585.85 257.548C585.85 256.237 586.924 255.144 588.252 255.144H595.442C596.771 255.144 597.845 256.237 597.845 257.548C597.845 258.877 596.771 259.951 595.442 259.951Z" fill="#253D95"/>
<path fill-rule="evenodd" clip-rule="evenodd" d="M578.641 259.951H571.452C570.123 259.951 569.049 258.877 569.049 257.548C569.049 256.237 570.123 255.144 571.452 255.144H578.641C579.97 255.144 581.044 256.237 581.044 257.548C581.044 258.877 579.97 259.951 578.641 259.951Z" fill="#253D95"/>
<path fill-rule="evenodd" clip-rule="evenodd" d="M232.435 67.8332C231.215 67.8332 230.159 66.9045 230.05 65.6662C229.249 57.3259 222.296 51.0251 213.887 51.0251C212.722 51.0251 211.52 51.1708 210.337 51.4258C209.081 51.7171 207.825 50.9523 207.498 49.7322C204.221 37.7681 193.263 29.4096 180.868 29.4096C169.491 29.4096 159.134 36.548 155.075 47.1828C154.784 47.9112 154.165 48.4757 153.401 48.6578C152.636 48.8399 151.817 48.6396 151.234 48.1115C148.14 45.3435 144.172 43.8321 140.058 43.8321C134.707 43.8321 129.81 46.2905 126.589 50.6063C125.897 51.535 124.641 51.8446 123.604 51.3347C121.601 50.3332 119.453 49.8233 117.251 49.8233C109.315 49.8233 102.853 56.2879 102.853 64.2458C102.853 64.5372 102.871 64.8285 102.889 65.1381L102.908 65.2656C102.944 65.9393 102.707 66.5949 102.252 67.0684C101.815 67.5601 101.178 67.8332 100.505 67.8332H50.558C49.2292 67.8332 48.1553 66.7588 48.1553 65.4477C48.1553 64.1183 49.2292 63.0439 50.558 63.0439H98.084C98.7029 53.0101 107.058 45.034 117.251 45.034C119.563 45.034 121.801 45.4346 123.949 46.2541C128.063 41.6286 133.815 39.0246 140.058 39.0246C144.263 39.0246 148.359 40.2629 151.872 42.5574C157.296 31.7041 168.581 24.6203 180.868 24.6203C194.701 24.6203 206.988 33.4522 211.484 46.3633C212.285 46.2723 213.086 46.2358 213.887 46.2358C224.79 46.2358 233.782 54.394 234.819 65.2109C234.947 66.5221 233.982 67.7057 232.671 67.8332C232.598 67.8332 232.507 67.8332 232.435 67.8332Z" fill="#A7B2DE"/>
<path fill-rule="evenodd" clip-rule="evenodd" d="M31.3549 67.8332H2.55894C1.23018 67.8332 0.15625 66.7588 0.15625 65.4477C0.15625 64.1183 1.23018 63.0439 2.55894 63.0439H31.3549C32.6836 63.0439 33.7576 64.1183 33.7576 65.4477C33.7576 66.7588 32.6836 67.8332 31.3549 67.8332Z" fill="#A7B2DE"/>
<path fill-rule="evenodd" clip-rule="evenodd" d="M581.555 77.4482C580.517 77.4482 579.552 76.7744 579.243 75.7365C577.55 70.0366 572.417 65.9211 566.483 65.5023C565.5 65.4294 564.663 64.7557 564.372 63.8269C561.296 54.0116 552.322 47.4195 542.038 47.4195C535.74 47.4195 529.824 49.9143 525.383 54.4122C524.782 55.0132 523.89 55.2499 523.071 55.0496C522.234 54.8129 521.578 54.1755 521.36 53.3378C518.338 42.0839 508.09 34.2171 496.441 34.2171C484.391 34.2171 474.07 42.3935 471.322 54.1209C471.049 55.3045 469.902 56.1058 468.683 55.9419C468.045 55.8691 467.518 55.8326 467.026 55.8326C463.732 55.8326 460.546 57.0709 458.107 59.329C457.488 59.8935 456.633 60.1121 455.832 59.8753C452.155 58.8555 448.46 59.6204 445.511 61.7874C444.929 62.2244 444.164 62.3701 443.436 62.1698C442.726 61.9695 442.144 61.4414 441.871 60.7676C439.468 54.8493 433.789 51.0251 427.418 51.0251C418.827 51.0251 411.819 58.0361 411.819 66.6313C411.819 69.199 412.438 71.6574 413.639 73.9154C414.039 74.662 414.003 75.5543 413.566 76.2828C413.148 77.0112 412.365 77.4482 411.509 77.4482H375.815C374.486 77.4482 373.412 76.3738 373.412 75.0445C373.412 73.7151 374.486 72.6407 375.815 72.6407H407.924C407.323 70.7104 407.013 68.6709 407.013 66.6313C407.013 55.3774 416.169 46.2358 427.418 46.2358C434.808 46.2358 441.47 50.151 445.092 56.4336C448.351 54.7764 452.1 54.2119 455.85 54.9585C459.072 52.3909 463.058 50.9887 467.19 51.0251C471.103 38.2051 482.844 29.4096 496.441 29.4096C509.001 29.4096 520.158 37.1125 524.8 48.5121C529.715 44.688 535.721 42.6302 542.038 42.6302C553.905 42.6302 564.317 49.8961 568.431 60.8951C575.657 62.0241 581.737 67.2869 583.848 74.3525C584.23 75.6272 583.502 76.9747 582.228 77.339C582.01 77.4118 581.773 77.4482 581.555 77.4482Z" fill="#A7B2DE"/>
<path fill-rule="evenodd" clip-rule="evenodd" d="M479.039 143.479H453.828C452.5 143.479 451.426 142.404 451.426 141.093C451.426 139.764 452.5 138.689 453.828 138.689H476.872C477.928 133.536 482.26 129.584 487.594 129.129C488.74 120.971 495.766 114.67 504.23 114.67C512.694 114.67 519.702 120.934 520.867 129.074H534.246C535.556 129.074 536.649 130.149 536.649 131.478C536.649 132.807 535.556 133.882 534.246 133.882H518.628C517.318 133.882 516.244 132.807 516.244 131.478C516.244 124.85 510.856 119.477 504.23 119.477C497.641 119.477 492.272 124.831 492.235 131.423C492.235 131.46 492.235 131.533 492.235 131.569C492.235 132.243 491.944 132.898 491.434 133.372C490.906 133.827 490.233 134.027 489.541 133.936C489.232 133.9 488.941 133.882 488.631 133.882C484.663 133.882 481.423 137.105 481.423 141.093C481.423 142.404 480.349 143.479 479.039 143.479Z" fill="#A7B2DE"/>
<path fill-rule="evenodd" clip-rule="evenodd" d="M557.035 133.882H543.838C542.509 133.882 541.436 132.807 541.436 131.478C541.436 130.149 542.509 129.074 543.838 129.074H557.035C558.364 129.074 559.438 130.149 559.438 131.478C559.438 132.807 558.364 133.882 557.035 133.882Z" fill="#A7B2DE"/>
<path fill-rule="evenodd" clip-rule="evenodd" d="M190.988 187.912H144.172C142.862 187.912 141.77 186.837 141.77 185.508C141.77 179.881 137.201 175.31 131.576 175.31C131.358 175.31 131.121 175.328 130.903 175.347C129.72 175.438 128.555 174.636 128.3 173.453C127.171 168.263 122.493 164.493 117.178 164.493C110.88 164.493 105.766 169.61 105.766 175.911C105.766 177.222 104.692 178.315 103.381 178.315H79.3724C78.0437 178.315 76.9697 177.222 76.9697 175.911C76.9697 174.582 78.0437 173.507 79.3724 173.507H101.142C102.307 165.695 109.06 159.704 117.178 159.704C124.059 159.704 130.193 164.147 132.45 170.521C139.513 170.94 145.283 176.257 146.393 183.104H190.988C192.317 183.104 193.391 184.179 193.391 185.508C193.391 186.837 192.317 187.912 190.988 187.912Z" fill="#A7B2DE"/>
<path fill-rule="evenodd" clip-rule="evenodd" d="M213.796 187.912H200.581C199.271 187.912 198.179 186.837 198.179 185.508C198.179 184.179 199.271 183.104 200.581 183.104H213.796C215.107 183.104 216.199 184.179 216.199 185.508C216.199 186.837 215.107 187.912 213.796 187.912Z" fill="#A7B2DE"/>
<path fill-rule="evenodd" clip-rule="evenodd" d="M378.217 115.872H345.817C345.143 115.872 344.615 115.326 344.615 114.67C344.615 114.014 345.143 113.468 345.817 113.468H378.217C378.872 113.468 379.418 114.014 379.418 114.67C379.418 115.326 378.872 115.872 378.217 115.872Z" fill="#A7B2DE"/>
<path fill-rule="evenodd" clip-rule="evenodd" d="M392.614 115.872H383.022C382.348 115.872 381.82 115.326 381.82 114.67C381.82 114.014 382.348 113.468 383.022 113.468H392.614C393.288 113.468 393.816 114.014 393.816 114.67C393.816 115.326 393.288 115.872 392.614 115.872Z" fill="#A7B2DE"/>
<path fill-rule="evenodd" clip-rule="evenodd" d="M401.024 115.872H397.42C396.747 115.872 396.219 115.326 396.219 114.67C396.219 114.014 396.747 113.468 397.42 113.468H401.024C401.679 113.468 402.225 114.014 402.225 114.67C402.225 115.326 401.679 115.872 401.024 115.872Z" fill="#A7B2DE"/>
<path fill-rule="evenodd" clip-rule="evenodd" d="M369.789 131.606C369.68 131.606 369.57 131.587 369.461 131.569L344.47 124.868C343.833 124.686 343.45 124.03 343.614 123.393C343.796 122.755 344.451 122.373 345.088 122.537L370.098 129.238C370.735 129.42 371.118 130.076 370.936 130.713C370.79 131.241 370.317 131.606 369.789 131.606Z" fill="#A7B2DE"/>
<path fill-rule="evenodd" clip-rule="evenodd" d="M385.243 135.739C385.134 135.739 385.025 135.739 384.934 135.703L375.669 133.226C375.032 133.062 374.649 132.389 374.813 131.751C374.995 131.114 375.651 130.731 376.288 130.914L385.553 133.39C386.19 133.554 386.572 134.21 386.39 134.865C386.262 135.393 385.771 135.739 385.243 135.739Z" fill="#A7B2DE"/>
<path fill-rule="evenodd" clip-rule="evenodd" d="M398.111 139.199C398.001 139.199 397.892 139.181 397.801 139.163L390.011 137.069C389.374 136.905 388.991 136.231 389.155 135.594C389.337 134.956 389.992 134.574 390.629 134.756L398.42 136.832C399.057 137.014 399.439 137.67 399.257 138.307C399.13 138.835 398.638 139.199 398.111 139.199Z" fill="#A7B2DE"/>
<path fill-rule="evenodd" clip-rule="evenodd" d="M344.47 106.876C343.943 106.876 343.451 106.53 343.305 105.984C343.142 105.346 343.524 104.691 344.161 104.509L365.803 98.7178C366.44 98.5357 367.096 98.9181 367.278 99.5737C367.442 100.211 367.059 100.867 366.422 101.03L344.78 106.84C344.671 106.858 344.58 106.876 344.47 106.876Z" fill="#A7B2DE"/>
<path fill-rule="evenodd" clip-rule="evenodd" d="M370.882 99.7922C370.354 99.7922 369.881 99.4462 369.735 98.8999C369.553 98.2625 369.935 97.607 370.572 97.4431L382.677 94.1834C383.314 94.0195 383.987 94.402 384.151 95.0393C384.315 95.6767 383.933 96.3322 383.296 96.5143L371.209 99.7558C371.1 99.774 370.991 99.7922 370.882 99.7922Z" fill="#A7B2DE"/>
<path fill-rule="evenodd" clip-rule="evenodd" d="M387.772 95.2761C387.245 95.2761 386.753 94.9119 386.607 94.3838C386.444 93.7464 386.808 93.0908 387.463 92.9087L397.492 90.2136C398.129 90.0497 398.785 90.4321 398.949 91.0695C399.131 91.7069 398.748 92.3624 398.111 92.5445L388.082 95.2214C387.973 95.2579 387.863 95.2761 387.772 95.2761Z" fill="#A7B2DE"/>
<path fill-rule="evenodd" clip-rule="evenodd" d="M276.193 115.908H243.793C243.138 115.908 242.592 115.38 242.592 114.706C242.592 114.051 243.138 113.505 243.793 113.505H276.193C276.867 113.505 277.394 114.051 277.394 114.706C277.394 115.38 276.867 115.908 276.193 115.908Z" fill="#A7B2DE"/>
<path fill-rule="evenodd" clip-rule="evenodd" d="M238.988 115.908H229.396C228.722 115.908 228.194 115.38 228.194 114.706C228.194 114.051 228.722 113.505 229.396 113.505H238.988C239.662 113.505 240.19 114.051 240.19 114.706C240.19 115.38 239.662 115.908 238.988 115.908Z" fill="#A7B2DE"/>
<path fill-rule="evenodd" clip-rule="evenodd" d="M224.59 115.908H220.986C220.33 115.908 219.784 115.38 219.784 114.706C219.784 114.051 220.33 113.505 220.986 113.505H224.59C225.245 113.505 225.791 114.051 225.791 114.706C225.791 115.38 225.245 115.908 224.59 115.908Z" fill="#A7B2DE"/>
<path fill-rule="evenodd" clip-rule="evenodd" d="M277.231 106.876C277.122 106.876 277.031 106.858 276.922 106.84L251.912 100.138C251.275 99.9561 250.893 99.3005 251.075 98.6632C251.239 98.0258 251.894 97.6434 252.549 97.8073L277.541 104.509C278.178 104.691 278.56 105.346 278.396 105.984C278.251 106.53 277.759 106.876 277.231 106.876Z" fill="#A7B2DE"/>
<path fill-rule="evenodd" clip-rule="evenodd" d="M246.032 98.5175C245.923 98.5175 245.832 98.4993 245.723 98.4811L236.458 95.9863C235.821 95.8224 235.439 95.1668 235.621 94.5294C235.784 93.8739 236.44 93.4914 237.077 93.6736L246.342 96.1502C246.979 96.3323 247.361 96.9878 247.197 97.6252C247.052 98.1533 246.56 98.5175 246.032 98.5175Z" fill="#A7B2DE"/>
<path fill-rule="evenodd" clip-rule="evenodd" d="M231.689 94.6751C231.598 94.6751 231.489 94.6569 231.379 94.6387L223.589 92.5445C222.952 92.3624 222.569 91.7069 222.751 91.0695C222.915 90.4321 223.571 90.0497 224.208 90.2136L231.998 92.3078C232.635 92.4899 233.018 93.1455 232.854 93.7828C232.708 94.3109 232.217 94.6751 231.689 94.6751Z" fill="#A7B2DE"/>
<path fill-rule="evenodd" clip-rule="evenodd" d="M255.898 130.695C255.37 130.695 254.879 130.349 254.733 129.821C254.569 129.165 254.952 128.51 255.589 128.346L277.231 122.537C277.868 122.373 278.524 122.755 278.706 123.393C278.869 124.03 278.487 124.686 277.85 124.868L256.208 130.659C256.098 130.695 256.007 130.695 255.898 130.695Z" fill="#A7B2DE"/>
<path fill-rule="evenodd" clip-rule="evenodd" d="M239.024 135.229C238.496 135.229 238.005 134.865 237.859 134.337C237.695 133.7 238.078 133.044 238.715 132.862L250.801 129.621C251.456 129.457 252.112 129.839 252.275 130.476C252.457 131.114 252.075 131.769 251.438 131.952L239.334 135.193C239.224 135.211 239.115 135.229 239.024 135.229Z" fill="#A7B2DE"/>
<path fill-rule="evenodd" clip-rule="evenodd" d="M224.208 139.199C223.68 139.199 223.207 138.835 223.061 138.307C222.879 137.67 223.261 137.014 223.898 136.832L233.928 134.155C234.583 133.973 235.238 134.355 235.402 134.993C235.566 135.63 235.202 136.304 234.547 136.468L224.517 139.163C224.426 139.181 224.317 139.199 224.208 139.199Z" fill="#A7B2DE"/>
<path fill-rule="evenodd" clip-rule="evenodd" d="M124.969 305.586H76.9701C75.6413 305.586 74.5674 304.512 74.5674 303.183C74.5674 301.853 75.6413 300.779 76.9701 300.779H124.969C126.298 300.779 127.372 301.853 127.372 303.183C127.372 304.512 126.298 305.586 124.969 305.586Z" fill="#253D95"/>
<path fill-rule="evenodd" clip-rule="evenodd" d="M146.575 305.586H134.579C133.251 305.586 132.177 304.512 132.177 303.183C132.177 301.853 133.251 300.779 134.579 300.779H146.575C147.903 300.779 148.977 301.853 148.977 303.183C148.977 304.512 147.903 305.586 146.575 305.586Z" fill="#253D95"/>
<path fill-rule="evenodd" clip-rule="evenodd" d="M372.209 294.769H342.813C342.121 294.769 341.484 294.496 341.029 293.986L337.516 290.089L334.476 293.877C334.021 294.442 333.33 294.769 332.601 294.769H318.203C316.875 294.769 315.801 293.695 315.801 292.366C315.801 291.055 316.875 289.98 318.203 289.98H331.455L335.532 284.863C335.969 284.317 336.642 283.989 337.334 283.971C338.026 283.934 338.717 284.244 339.191 284.772L343.887 289.98H372.209C373.538 289.98 374.612 291.055 374.612 292.366C374.612 293.695 373.538 294.769 372.209 294.769Z" fill="#253D95"/>
<path fill-rule="evenodd" clip-rule="evenodd" d="M308.611 294.769H299C297.672 294.769 296.598 293.695 296.598 292.366C296.598 291.055 297.672 289.98 299 289.98H308.611C309.922 289.98 311.014 291.055 311.014 292.366C311.014 293.695 309.922 294.769 308.611 294.769Z" fill="#253D95"/>
<path fill-rule="evenodd" clip-rule="evenodd" d="M488.632 283.971H468.227C466.898 283.971 465.824 282.896 465.824 281.567C465.824 280.238 466.898 279.163 468.227 279.163H488.632C489.96 279.163 491.034 280.238 491.034 281.567C491.034 282.896 489.96 283.971 488.632 283.971Z" fill="#253D95"/>
<path fill-rule="evenodd" clip-rule="evenodd" d="M536.648 270.768H528.239C526.91 270.768 525.836 269.694 525.836 268.365C525.836 267.035 526.91 265.961 528.239 265.961H536.648C537.959 265.961 539.033 267.035 539.033 268.365C539.033 269.694 537.959 270.768 536.648 270.768Z" fill="#253D95"/>
<path fill-rule="evenodd" clip-rule="evenodd" d="M102.18 275.558H79.3724C78.0437 275.558 76.9697 274.483 76.9697 273.172C76.9697 271.843 78.0437 270.768 79.3724 270.768H102.18C103.49 270.768 104.564 271.843 104.564 273.172C104.564 274.483 103.49 275.558 102.18 275.558Z" fill="#253D95"/>
<path fill-rule="evenodd" clip-rule="evenodd" d="M158.589 275.558H148.978C147.649 275.558 146.575 274.483 146.575 273.172C146.575 271.843 147.649 270.768 148.978 270.768H158.589C159.899 270.768 160.973 271.843 160.973 273.172C160.973 274.483 159.899 275.558 158.589 275.558Z" fill="#253D95"/>
<path fill-rule="evenodd" clip-rule="evenodd" d="M237.786 286.374H229.395C228.758 286.374 228.139 286.12 227.702 285.664L224.59 282.569L221.495 285.664C221.04 286.12 220.421 286.374 219.784 286.374H199.38C198.069 286.374 196.995 285.3 196.995 283.971C196.995 282.641 198.069 281.567 199.38 281.567H218.801L222.897 277.47C223.825 276.523 225.354 276.523 226.283 277.47L230.378 281.567H237.786C239.115 281.567 240.189 282.641 240.189 283.971C240.189 285.3 239.115 286.374 237.786 286.374Z" fill="#253D95"/>
<path fill-rule="evenodd" clip-rule="evenodd" d="M404.629 273.172H375.815C374.486 273.172 373.412 272.079 373.412 270.768C373.412 269.439 374.486 268.365 375.815 268.365H404.629C405.939 268.365 407.013 269.439 407.013 270.768C407.013 272.079 405.939 273.172 404.629 273.172Z" fill="#253D95"/>
<path fill-rule="evenodd" clip-rule="evenodd" d="M261.795 321.192H238.988C237.677 321.192 236.585 320.118 236.585 318.789C236.585 317.459 237.677 316.385 238.988 316.385H261.795C263.124 316.385 264.198 317.459 264.198 318.789C264.198 320.118 263.124 321.192 261.795 321.192Z" fill="#253D95"/>
<path fill-rule="evenodd" clip-rule="evenodd" d="M557.036 303.183H533.045C531.717 303.183 530.643 302.108 530.643 300.779C530.643 299.449 531.717 298.375 533.045 298.375H557.036C558.365 298.375 559.439 299.449 559.439 300.779C559.439 302.108 558.365 303.183 557.036 303.183Z" fill="#253D95"/>
<path fill-rule="evenodd" clip-rule="evenodd" d="M573.855 303.183H566.647C565.318 303.183 564.244 302.108 564.244 300.779C564.244 299.449 565.318 298.375 566.647 298.375H573.855C575.165 298.375 576.239 299.449 576.239 300.779C576.239 302.108 575.165 303.183 573.855 303.183Z" fill="#253D95"/>
<path fill-rule="evenodd" clip-rule="evenodd" d="M411.819 326H375.815C374.486 326 373.412 324.926 373.412 323.596C373.412 322.267 374.486 321.193 375.815 321.193H411.819C413.148 321.193 414.221 322.267 414.221 323.596C414.221 324.926 413.148 326 411.819 326Z" fill="#253D95"/>
<path fill-rule="evenodd" clip-rule="evenodd" d="M453.828 326H439.43C438.101 326 437.027 324.926 437.027 323.596C437.027 322.267 438.101 321.193 439.43 321.193H453.828C455.157 321.193 456.231 322.267 456.231 323.596C456.231 324.926 455.157 326 453.828 326Z" fill="#253D95"/>
<path fill-rule="evenodd" clip-rule="evenodd" d="M93.0237 48.6214C93.3331 48.8945 93.5879 49.2405 93.77 49.6047C93.9702 49.2405 94.2068 48.8945 94.5163 48.6214C94.2068 48.3664 93.9702 48.0204 93.77 47.6562C93.5879 48.0204 93.3331 48.3664 93.0237 48.6214ZM93.77 52.828C93.4423 52.828 93.1693 52.5548 93.1693 52.227C93.1693 52.2088 93.1329 49.2223 91.3673 49.2223C91.0396 49.2223 90.7666 48.9674 90.7666 48.6214C90.7666 48.2936 91.0396 48.0204 91.3673 48.0204C93.1329 48.0204 93.1693 45.0522 93.1693 45.034C93.1693 44.688 93.4423 44.433 93.77 44.433C94.0976 44.433 94.3706 44.688 94.3706 45.034C94.3706 45.0522 94.407 48.0204 96.1727 48.0204C96.5003 48.0204 96.7733 48.2936 96.7733 48.6214C96.7733 48.9674 96.5003 49.2223 96.1727 49.2223C94.407 49.2223 94.3706 52.2088 94.3706 52.227C94.3706 52.5548 94.0976 52.828 93.77 52.828Z" fill="#A7B2DE"/>
<path fill-rule="evenodd" clip-rule="evenodd" d="M576.712 48.6214C577.022 48.8945 577.258 49.2405 577.44 49.6047C577.64 49.2405 577.877 48.8945 578.186 48.6214C577.877 48.3664 577.64 48.0204 577.44 47.6562C577.258 48.0204 577.022 48.3664 576.712 48.6214ZM577.44 52.828C577.113 52.828 576.84 52.5548 576.84 52.227C576.84 52.2088 576.821 49.2223 575.056 49.2223C574.71 49.2223 574.455 48.9674 574.455 48.6214C574.455 48.2936 574.71 48.0204 575.056 48.0204C576.821 48.0204 576.84 45.0522 576.84 45.034C576.84 44.688 577.113 44.433 577.44 44.433C577.786 44.433 578.041 44.688 578.041 45.034C578.041 45.0522 578.077 48.0204 579.843 48.0204C580.171 48.0204 580.444 48.2936 580.444 48.6214C580.444 48.9674 580.171 49.2223 579.843 49.2223C578.077 49.2223 578.041 52.2088 578.041 52.227C578.041 52.5548 577.786 52.828 577.44 52.828Z" fill="#A7B2DE"/>
<path fill-rule="evenodd" clip-rule="evenodd" d="M334.259 4.20657C334.568 4.46151 334.823 4.80751 335.005 5.17171C335.206 4.80751 335.442 4.46151 335.752 4.20657C335.442 3.93342 335.206 3.60563 335.005 3.22322C334.823 3.60563 334.568 3.93342 334.259 4.20657ZM335.005 8.41314C334.678 8.41314 334.405 8.13999 334.405 7.8122C334.405 7.77578 334.386 4.80751 332.603 4.80751C332.275 4.80751 332.002 4.53435 332.002 4.20657C332.002 3.87878 332.275 3.60563 332.603 3.60563C334.386 3.60563 334.405 0.637359 334.405 0.600938C334.405 0.273154 334.678 0 335.005 0C335.333 0 335.606 0.273154 335.606 0.600938C335.606 0.637359 335.642 3.60563 337.408 3.60563C337.736 3.60563 338.009 3.87878 338.009 4.20657C338.009 4.53435 337.736 4.80751 337.408 4.80751C335.642 4.80751 335.606 7.77578 335.606 7.8122C335.606 8.13999 335.333 8.41314 335.005 8.41314Z" fill="#A7B2DE"/>
<path fill-rule="evenodd" clip-rule="evenodd" d="M130.885 87.045C129.701 87.045 128.718 86.2074 128.518 85.0419C128.482 84.8416 127.554 79.852 123.695 79.852C122.366 79.852 121.292 78.7776 121.292 77.4482C121.292 76.1189 122.366 75.0445 123.695 75.0445C127.026 75.0445 129.356 76.7198 130.885 78.7594C132.414 76.7198 134.743 75.0445 138.093 75.0445C139.421 75.0445 140.495 76.1189 140.495 77.4482C140.495 78.7776 139.421 79.852 138.093 79.852C134.216 79.852 133.287 84.8416 133.251 85.0601C133.051 86.2074 132.05 87.045 130.885 87.045Z" fill="#A7B2DE"/>
<path fill-rule="evenodd" clip-rule="evenodd" d="M152.581 103.689C152.326 103.689 152.09 103.653 151.835 103.562C150.725 103.198 150.033 102.087 150.197 100.921C150.233 100.721 150.888 95.6949 147.212 94.493C145.956 94.0742 145.264 92.7266 145.664 91.4701C146.083 90.1954 147.43 89.5216 148.704 89.9222C151.871 90.9602 153.582 93.2547 154.401 95.6767C156.495 94.2017 159.207 93.3458 162.392 94.3655C163.648 94.7844 164.34 96.1319 163.939 97.4067C163.521 98.6632 162.174 99.3552 160.918 98.9363C157.186 97.7344 154.729 102.342 154.711 102.396C154.292 103.198 153.455 103.689 152.581 103.689Z" fill="#A7B2DE"/>
</g>
<defs>
<clipPath id="clip0">
<rect width="598" height="326" fill="white"/>
</clipPath>
</defs>
</svg>
